<svg width="128" height="128" viewBox="0 0 128 128" fill="none" xmlns="http://www.w3.org/2000/svg">
  <defs>
    <marker id="arrowStart" markerWidth="5" markerHeight="5" refX="1.2" refY="2.5" orient="auto" markerUnits="strokeWidth">
      <path d="M4.5 0.6L1 2.5L4.5 4.4" fill="none" stroke="#DDF7FF" stroke-width="0.8" stroke-linecap="round"/>
    </marker>
    <marker id="arrowEnd" markerWidth="5" markerHeight="5" refX="3.8" refY="2.5" orient="auto" markerUnits="strokeWidth">
      <path d="M0.5 0.6L4 2.5L0.5 4.4" fill="none" stroke="#DDF7FF" stroke-width="0.8" stroke-linecap="round"/>
    </marker>
  </defs>

  <g stroke="#DDF7FF" stroke-linecap="round" stroke-linejoin="round">
    <g opacity="0.9" stroke-width="0.44">
      <path d="M33.2875 31V25.6M46.2475 31V25.6M52.9528 31V25.6M92.1525 31V25.6"/>
      <path d="M34.6575 27.2H44.8775" marker-start="url(#arrowStart)" marker-end="url(#arrowEnd)"/>
      <path d="M54.3275 27.2H90.7775" marker-start="url(#arrowStart)" marker-end="url(#arrowEnd)"/>
      <path d="M33.2875 97.3V103M46.2475 97.3V103M50.1528 97.3V103M94.7125 97.3V103"/>
      <path d="M34.6575 101.1H44.8775" marker-start="url(#arrowStart)" marker-end="url(#arrowEnd)"/>
      <path d="M51.5275 101.1H93.3375" marker-start="url(#arrowStart)" marker-end="url(#arrowEnd)"/>
      <path d="M27.9566 52.08H23.8566M27.9566 65.04H23.8566M27.9566 80.04H23.8566M27.9566 93H23.8566"/>
      <path d="M25.6566 53.45V63.67" marker-start="url(#arrowStart)" marker-end="url(#arrowEnd)"/>
      <path d="M25.6566 81.41V91.63" marker-start="url(#arrowStart)" marker-end="url(#arrowEnd)"/>
    </g>

    <g opacity="0.58" stroke-width="0.34">
      <path d="M30.2875 35.1H48.7475M39.7675 94.8V44.5M46.2475 34.2V49.9M52.9528 34.2V49.9" stroke-dasharray="1.6 1.6"/>
      <path d="M50.1528 65.2H94.7125M71.9875 32.7V98.2" stroke-dasharray="1.2 2"/>
      <circle cx="71.9875" cy="65.2" r="20.8"/>
      <circle cx="71.9875" cy="65.2" r="1.1"/>
    </g>

    <g opacity="0.76" stroke-width="0.4">
      <path d="M24 20V24M22 22H26M101 17V21M99 19H103M114 106V110M112 108H116"/>
      <path d="M54 107L57 110M57 107L54 110M16 74L19 77M19 74L16 77"/>
      <path d="M74 22H82M78 18V26" stroke-dasharray="0.7 1.1"/>
    </g>
  </g>
</svg>
